<?xml version="1.0" standalone="no"?>
<!DOCTYPE svg PUBLIC "-//W3C//DTD SVG 20010904//EN"
 "http://www.w3.org/TR/2001/REC-SVG-20010904/DTD/svg10.dtd">
<svg version="1.0" xmlns="http://www.w3.org/2000/svg"
 width="150.000000pt" height="150.000000pt" viewBox="0 0 150.000000 150.000000"
 preserveAspectRatio="xMidYMid meet">

<g transform="translate(0.000000,150.000000) scale(0.100000,-0.100000)"
fill="#000000" stroke="none">
<path d="M0 750 l0 -750 750 0 750 0 0 750 0 750 -750 0 -750 0 0 -750z m1150
315 c0 -17 -2 -17 -10 -5 -5 8 -10 10 -10 5 0 -15 -40 -16 -40 -2 0 9 -2 9 -8
0 -5 -8 -30 -11 -70 -9 -35 1 -65 -1 -68 -6 -3 -4 -15 -8 -27 -8 -12 0 -48
-13 -79 -29 -31 -16 -59 -26 -62 -23 -3 3 -6 -2 -6 -11 0 -9 -7 -17 -17 -17
-9 0 -14 -3 -11 -6 5 -4 -25 -35 -110 -111 -15 -13 -31 -18 -47 -15 -14 2 -25
0 -25 -7 0 -5 8 -8 18 -5 11 4 8 -1 -8 -15 -23 -19 -30 -22 -46 -20 -4 0 -10
-5 -14 -11 -8 -13 -75 -29 -121 -30 -16 0 -26 5 -26 15 0 8 4 15 9 15 4 0 8
-6 8 -12 0 -10 3 -9 9 1 5 7 14 10 20 7 6 -4 11 -2 11 3 0 6 10 11 23 10 21 0
21 -1 2 -9 -19 -8 -19 -9 3 -9 13 -1 22 5 22 14 0 8 5 15 10 15 6 0 29 12 53
27 23 14 48 26 54 26 7 0 11 3 8 5 -5 6 24 42 34 42 3 0 35 27 70 60 35 33 67
57 71 55 4 -3 11 2 14 11 3 8 10 12 16 9 5 -3 10 -1 10 4 0 30 135 56 288 56
45 0 52 -3 52 -20z m170 -176 c0 -16 -7 -19 -47 -19 -127 -2 -272 -12 -303
-22 -55 -17 -99 -47 -189 -130 -143 -134 -239 -167 -466 -164 -104 1 -110 2
-113 22 -3 21 1 21 157 26 160 5 160 5 233 41 48 23 105 65 165 120 51 46 119
97 150 112 55 28 66 29 228 35 94 3 173 4 178 2 4 -2 7 -12 7 -23z m-162 -176
c-3 -26 -7 -28 -58 -34 -74 -8 -107 -27 -182 -105 -150 -157 -234 -194 -434
-194 l-124 0 0 24 c0 24 0 24 137 28 129 3 142 5 203 34 48 23 90 56 160 125
100 99 142 126 219 139 80 13 83 13 79 -17z"/>
<path d="M925 1060 c-3 -5 -1 -10 4 -10 6 0 11 5 11 10 0 6 -2 10 -4 10 -3 0
-8 -4 -11 -10z"/>
<path d="M878 1053 c6 -2 18 -2 25 0 6 3 1 5 -13 5 -14 0 -19 -2 -12 -5z"/>
<path d="M820 1031 c0 -5 9 -7 20 -4 11 3 20 7 20 9 0 2 -9 4 -20 4 -11 0 -20
-4 -20 -9z"/>
<path d="M745 980 c-3 -5 -1 -10 4 -10 6 0 11 5 11 10 0 6 -2 10 -4 10 -3 0
-8 -4 -11 -10z"/>
<path d="M715 950 c3 -5 8 -10 11 -10 2 0 4 5 4 10 0 6 -5 10 -11 10 -5 0 -7
-4 -4 -10z"/>
<path d="M660 900 c0 -5 5 -10 10 -10 6 0 10 5 10 10 0 6 -4 10 -10 10 -5 0
-10 -4 -10 -10z"/>
<path d="M610 849 c0 -5 5 -7 10 -4 6 3 10 8 10 11 0 2 -4 4 -10 4 -5 0 -10
-5 -10 -11z"/>
</g>
</svg>
